<svg width="35" height="35" viewBox="0 0 35 35" fill="none" xmlns="http://www.w3.org/2000/svg">
<g clip-path="url(#clip0_129_454)">
<path d="M30.6322 13.228L33.717 8.52089C33.7968 8.38792 33.8234 8.22836 33.7968 8.09539C33.7702 7.96243 33.6373 7.82946 33.5043 7.74968L26.8825 4.69141L26.4304 5.64878L32.4937 8.44111L29.8078 12.5099L26.4038 10.8877L25.9783 11.8717L28.8504 13.2546L17.2024 19.5041L5.55435 13.2546L8.21372 11.9781L7.76163 11.0207L4.59698 12.5365L1.91102 8.46771L8.05416 5.67537L7.62866 4.69141L0.900463 7.74968C0.767494 7.80286 0.66112 7.93583 0.607932 8.09539C0.554745 8.25496 0.581339 8.41452 0.66112 8.54749L3.77258 13.2546L0.66112 18.7063C0.581339 18.8392 0.581339 18.9722 0.607932 19.1052C0.66112 19.2381 0.740901 19.3711 0.873869 19.4243L3.90555 21.0199V26.7907C3.90555 26.9769 4.01192 27.163 4.19808 27.2694L16.963 34.0508C17.0428 34.104 17.1226 34.104 17.2024 34.104C17.2822 34.104 17.3619 34.0774 17.4417 34.0508L30.2067 27.2694C30.3928 27.1896 30.4992 27.0035 30.4992 26.7907V21.0199L33.5309 19.4243C33.6639 19.3445 33.7436 19.2381 33.7968 19.1052C33.85 18.9722 33.8234 18.8126 33.7436 18.7063L30.6322 13.228ZM4.59698 13.946L16.4578 20.3285L13.7452 25.0621L4.96929 20.4083V20.3019H4.78314L1.85783 18.7329L4.59698 13.946ZM4.96929 21.605L13.692 26.2323C13.7718 26.2855 13.8516 26.2855 13.9314 26.2855C14.1175 26.2855 14.3037 26.1791 14.3835 26.0195L16.6705 22.1103V32.6945L4.96929 26.4982V21.605ZM29.4355 26.4982L17.7343 32.6945V22.1103L19.9947 26.0195C20.1011 26.1791 20.2606 26.2855 20.4468 26.2855C20.5266 26.2855 20.6064 26.2589 20.6861 26.2323L29.4355 21.5784V26.4982ZM29.595 20.3019H29.4355V20.3817L20.6596 25.0356L17.9204 20.3285L29.7812 13.946L32.5203 18.7594L29.595 20.3019Z" fill="black"/>
<path d="M16.6705 9.93028C16.8034 9.93028 16.963 9.8771 17.0428 9.77072L19.649 7.16454L18.9043 6.41992L16.6705 8.62719L15.5003 7.43048L14.7291 8.1751L16.2716 9.77072C16.4045 9.8771 16.5375 9.93028 16.6705 9.93028Z" fill="black"/>
<path d="M9.49019 10.9942H10.8465L10.9794 11.3133L10.0221 12.2707C9.91568 12.3771 9.8625 12.51 9.8625 12.643C9.8625 12.776 9.91568 12.909 10.0221 13.0153L12.5219 15.5151C12.7346 15.7279 13.0537 15.7279 13.2665 15.5151L14.2239 14.5578L14.543 14.6907V16.047C14.543 16.3395 14.7823 16.5789 15.0749 16.5789H19.3298C19.6224 16.5789 19.8617 16.3395 19.8617 16.047V14.6907L20.1808 14.5578L21.1382 15.5151C21.351 15.7279 21.6701 15.7279 21.8828 15.5151L24.3826 13.0153C24.489 12.909 24.5422 12.776 24.5422 12.643C24.5422 12.51 24.489 12.3771 24.3826 12.2707L23.4253 11.3133L23.5582 10.9942H24.9145C25.207 10.9942 25.4464 10.7549 25.4464 10.4623V6.20736C25.4464 5.91483 25.207 5.67548 24.9145 5.67548H23.5582L23.4253 5.35636L24.3826 4.39899C24.5954 4.18624 24.5954 3.86712 24.3826 3.65437L21.8828 1.15457C21.6701 0.941817 21.351 0.941817 21.1382 1.15457L20.1808 2.11194L19.8617 1.97897V0.622693C19.8617 0.330163 19.6224 0.0908203 19.3298 0.0908203H15.0749C14.7823 0.0908203 14.543 0.330163 14.543 0.622693V1.97897L14.2239 2.11194L13.2665 1.15457C13.0537 0.941817 12.7346 0.941817 12.5219 1.15457L10.0221 3.65437C9.80931 3.86712 9.80931 4.18624 10.0221 4.39899L10.9794 5.35636L10.8465 5.67548H9.49019C9.19766 5.67548 8.95831 5.91483 8.95831 6.20736V10.4623C8.95831 10.7549 9.19766 10.9942 9.49019 10.9942ZM10.0221 6.73923H11.2188C11.4315 6.73923 11.6177 6.60626 11.6975 6.4201L12.0964 5.43614C12.1761 5.24999 12.123 5.01064 11.99 4.85108L11.1656 4.02668L12.8942 2.2715L13.7186 3.0959C13.8781 3.25546 14.0909 3.28206 14.3036 3.20228L15.2876 2.80337C15.4738 2.72359 15.6067 2.53743 15.6067 2.32469V1.15457H18.798V2.35128C18.798 2.56403 18.9309 2.75018 19.1171 2.82996L20.101 3.22887C20.2872 3.30865 20.5265 3.25546 20.6861 3.12249L21.5105 2.29809L23.2391 4.05327L22.4147 4.87767C22.2551 5.03724 22.2285 5.24999 22.3083 5.46273L22.7072 6.4467C22.787 6.63285 22.9732 6.76582 23.1859 6.76582H24.3826V9.95706H23.1859C22.9732 9.95706 22.787 10.09 22.7072 10.2762L22.3083 11.2601C22.2285 11.4463 22.2817 11.6856 22.4147 11.8452L23.2391 12.6696L21.5105 14.4248L20.6861 13.6004C20.5265 13.4408 20.3138 13.4142 20.101 13.494L19.1171 13.8929C18.9309 13.9727 18.798 14.1589 18.798 14.3716V15.5151H15.6067V14.3184C15.6067 14.1057 15.4738 13.9195 15.2876 13.8397L14.3036 13.4408C14.1175 13.361 13.8781 13.4142 13.7186 13.5472L12.8942 14.3716L11.1656 12.6164L11.99 11.792C12.1496 11.6325 12.1761 11.4197 12.0964 11.207L11.6975 10.223C11.6177 10.0368 11.4315 9.90387 11.2188 9.90387H10.0221V6.73923Z" fill="black"/>
<path d="M17.0692 13.1219C19.7818 13.1219 21.9891 10.9146 21.9891 8.20205C21.9891 5.4895 19.7818 3.28223 17.0692 3.28223C14.3567 3.28223 12.1494 5.4895 12.1494 8.20205C12.1494 10.9146 14.3567 13.1219 17.0692 13.1219ZM17.0692 4.34597C19.1967 4.34597 20.9253 6.07456 20.9253 8.20205C20.9253 10.3295 19.1967 12.0581 17.0692 12.0581C14.9417 12.0581 13.2132 10.3295 13.2132 8.20205C13.2132 6.07456 14.9417 4.34597 17.0692 4.34597Z" fill="black"/>
</g>
<defs>
<clipPath id="clip0_129_454">
<rect width="34.0399" height="34.0399" fill="black" transform="translate(0.182312 0.0908203)"/>
</clipPath>
</defs>
</svg>
