<svg width="25" height="24" viewBox="0 0 25 24" fill="none" xmlns="http://www.w3.org/2000/svg">
<rect x="0.666626" width="24" height="24" rx="12" fill="#fff"/>
<path d="M18.5182 12.3789L14.1432 16.7539C13.9791 16.918 13.7604 17 13.5416 17C13.2955 17 13.0768 16.918 12.9127 16.7539C12.5573 16.4258 12.5573 15.8516 12.9127 15.5234L15.7838 12.625H7.41663C6.92444 12.625 6.54163 12.2422 6.54163 11.75C6.54163 11.2852 6.92444 10.875 7.41663 10.875H15.7838L12.9127 8.00391C12.5573 7.67578 12.5573 7.10156 12.9127 6.77344C13.2408 6.41797 13.8151 6.41797 14.1432 6.77344L18.5182 11.1484C18.8737 11.4766 18.8737 12.0508 18.5182 12.3789Z" fill="#003449"/>
</svg>
